<?xml version="1.0" encoding="UTF-8"?><svg id="Layer_2" xmlns="http://www.w3.org/2000/svg" viewBox="0 0 213.21 106.37"><defs><style>.cls-1{fill:#423ebb;}</style></defs><g id="Layer_1-2"><rect class="cls-1" x="90.5" y="13.01" width="9.87" height="9.69"/><rect class="cls-1" x="110.23" y="13.01" width="9.87" height="9.69"/><rect class="cls-1" x="90.5" y="26.85" width="9.87" height="55.31"/><rect class="cls-1" x="110.23" y="26.85" width="9.87" height="55.31"/><path class="cls-1" d="M144.91,35h11.47v-8.15h-11.47v-9.52c0-5.28,2.87-8.26,8.03-8.26,1.26,0,2.52,.23,3.56,.35V1.03c-1.03-.46-3.21-1.03-5.62-1.03-8.49,0-15.83,5.85-15.83,16.64v10.21h-10.44v8.15h10.44v47.16h9.87V35Z"/><path class="cls-1" d="M183.49,106.37l29.72-79.52h-10.33l-12.16,35.34c-.8,2.18-1.61,4.48-2.41,6.77l-2.64-6.77-13.77-35.34h-10.9l22.15,53.36-10.1,26.16h10.44Z"/><path class="cls-1" d="M35.11,57.89c0,10.56-3.56,16.18-12.62,16.18s-12.62-5.62-12.62-16.18V24.73H0V59.95c0,14,9.52,22.21,22.49,22.21s22.49-8.21,22.49-22.21"/><path class="cls-1" d="M35.12,44.91v15.47h9.87v-13.4c0-10.56,3.56-16.18,12.62-16.18s12.62,5.62,12.62,16.18v33.16h9.87V44.91c0-14-9.52-22.21-22.49-22.21s-22.49,8.21-22.49,22.21"/></g></svg>